<svg height='100px' width='100px'  fill="#B30000" xmlns="http://www.w3.org/2000/svg" xmlns:xlink="http://www.w3.org/1999/xlink" version="1.1" x="0px" y="0px" viewBox="0 0 64 64" enable-background="new 0 0 64 64" xml:space="preserve"><g><g><g><path fill="#B30000" d="M33.052,11.962V8.064c-0.324,0.069-0.682,0.089-1.069,0.03c-0.503-0.079-0.93-0.258-1.314-0.566     c-0.645-0.513-1.108-1.317-1.595-2.177c-0.318-0.553-0.642-1.138-1.049-1.671l-0.87-1.158L26.63,3.868     c-0.235,0.602-0.394,1.214-0.553,1.81c-0.467,1.74-0.811,2.829-2.217,3.345c-1.505,0.553-2.683-0.159-4.176-1.059     c-0.476-0.288-0.96-0.576-1.476-0.83L16.727,6.39l0.324,1.625c0.109,0.523,0.238,1.029,0.377,1.512     c0.506,1.919,0.781,3.157-0.149,4.364c-0.89,1.178-2.237,1.168-3.789,1.168c-0.645,0-1.317,0-1.979,0.089l-1.426,0.179l0.9,1.128     c1.929,2.415,3.097,3.868,2.988,4.788c-0.109,0.94-1.582,2.098-4.255,4.186l-1.158,0.913l1.386,0.493     c0.503,0.179,1.039,0.328,1.555,0.467c1.009,0.265,1.959,0.523,2.561,1.009c0.387,0.304,0.596,0.672,0.675,1.168     c0.185,1.168-0.208,2.541-0.606,3.868c-0.179,0.622-0.367,1.267-0.493,1.909l-0.238,1.148l1.158-0.189     c0.443-0.069,0.91-0.205,1.393-0.344c1.218-0.347,2.475-0.715,3.315-0.04c0.129,0.099,0.248,0.225,0.367,0.374     c0.741,0.969,1.049,2.386,1.347,3.762c0.139,0.632,0.275,1.287,0.463,1.889l0.397,1.317l0.96-0.989     c0.199-0.199,0.397-0.427,0.592-0.635c1.089-1.218,2.128-2.362,3.891-2.078c0.513,0.079,0.969,0.278,1.363,0.596     c0.735,0.572,1.247,1.502,1.793,2.491c0.258,0.457,0.523,0.933,0.821,1.396l0.291,0.453c0.414-0.771,0.913-1.515,1.499-2.237     v-6.508c-3.689,1.089-7.805,0.347-11.19-2.336c-0.03-0.03-0.069-0.06-0.109-0.089c-2.495-2.018-4.047-4.947-4.374-8.232     c-0.328-3.286,0.632-6.502,2.693-9.036C23.239,12.051,28.424,10.615,33.052,11.962z"></path></g></g><path fill="#B30000" d="M52.115,36.195c0,1.988,0.007,3.975-0.007,5.963c-0.003,0.364,0.093,0.636,0.341,0.913   c2.08,2.327,3.098,5.07,2.981,8.181c-0.214,5.674-4.41,10.286-10.032,11.11c-6.18,0.906-12.133-3.438-13.114-9.573   c-0.587-3.667,0.364-6.898,2.793-9.691c0.27-0.311,0.365-0.607,0.364-1.001c-0.01-3.894-0.041-28.048,0.005-31.941   c0.048-4.107,2.737-8.017,6.961-8.566c2.658-0.346,5.405,0.573,7.332,2.432c1.578,1.818,2.386,3.925,2.377,6.342   C52.109,12.221,52.115,34.338,52.115,36.195z M48.81,36.952c0-2.151,0.012-24.561-0.004-26.712   c-0.032-2.072-0.803-3.748-2.17-4.625c-1.53-0.982-3.837-1.317-5.411-0.242c-1.571,1.073-2.461,2.932-2.474,4.808   c-0.03,4.122-0.036,28.504,0.012,32.626c0.01,0.883-0.217,1.508-0.864,2.12c-1.528,1.444-2.351,3.273-2.472,5.369   c-0.306,5.302,4.213,9.473,9.482,8.787c4.919-0.64,8.194-5.501,6.967-10.312c-0.451-1.769-1.444-3.184-2.755-4.404   c-0.233-0.217-0.321-0.447-0.319-0.766C48.816,41.383,48.81,39.168,48.81,36.952z"></path><path fill="#B30000" d="M46.063,45.737c-0.024-0.104-0.038-0.207-0.039-0.306c-0.015-1.84-0.014-3.708-0.013-5.516   c0.001-0.51,0.001-1.019,0.001-1.529v-2.951c0-6.688-0.001-18.097,0-19.998c0.001-0.105-0.005-0.206-0.013-0.307v-0.609   c0-1.216-1-2.2-2.234-2.2c-1.234,0-2.235,0.985-2.235,2.2v1.08c0,0.056,0.003,0.11,0.007,0.163   c-0.001,7.966-0.003,25.555,0.009,29.528c0.001,0.147-0.012,0.284-0.038,0.414c-2.031,0.87-3.454,2.888-3.454,5.238   c0,0.535,0.073,1.053,0.212,1.544c0.673,2.396,2.873,4.152,5.484,4.152c2.754,0,5.05-1.953,5.582-4.549c0,0,0,0,0-0.001   c0.075-0.371,0.115-0.754,0.115-1.147C49.449,48.621,48.058,46.623,46.063,45.737z"></path></g></svg>